<svg xmlns="http://www.w3.org/2000/svg" viewBox="0 0 1009.18 136.9"><defs><style>.a{fill:#fff;}.b{fill:#00bfe7;}.c,.d{fill:#58595b;}.c{opacity:0.4;}.d{opacity:0.5;}</style></defs><title>Asset 19</title><path class="a" d="M25.86,108.38c0,2.5,1.23,3.66,3.9,3.66h30a10,10,0,0,1,10.06,10.06v8.45c0,3.47-.82,4.63-5.54,4.63H20.73c-7.8,0-12.93-1.55-16.21-4.63S0,123.61,0,116.68V9.61c0-4,1-4.81,5.54-4.81h6.91A13.37,13.37,0,0,1,25.82,18.16Z"/><path class="a" d="M144.49,127.08c-3.9,6.35-10.27,9.82-22.58,9.82h-7.59c-10.67,0-17-1.73-22.57-6.16-6-4.82-8.83-12.33-8.83-21.57v-4.43c0-10.4,2.67-17.71,8.62-22.34,6.36-5,16-7.12,30-7.12h7.39c3.69,0,8,.19,11.49.38v-5.2c0-5-1-7.89-3.49-9.82C134,58.53,130.12,58,122.73,58a117.61,117.61,0,0,0-21.52,2.61,8.22,8.22,0,0,1-9.77-6.45l-.92-4.63c-.82-3.28-.42-4.82,3.08-5.78a118,118,0,0,1,31-4.62c14.57,0,22.57,1.73,29.55,6.16C161.52,50.05,164.8,57,164.8,70.66v60.85c0,2.5-1.43,3.66-4.31,3.66h-7.9a8.1,8.1,0,0,1-8.1-8.09ZM140.38,94c-3.49-.19-7.8-.39-11.9-.39H121.3c-4.73,0-8.62.58-10.68,2.31-2.25,1.74-3.07,5-3.07,9.44v2.31c0,4.23,1,6.93,3.07,8.66,1.65,1.35,4.52,2.31,9,2.31H127c9.44,0,13.34-4,13.34-12.9Z"/><path class="a" d="M272.56,130.35c0,3.85-1.24,4.82-5.75,4.82H253.88c-4.51,0-5.74-1-5.74-4.82V76.63c0-7.71-1-11.94-4.32-15-3.08-2.89-7-4-13.54-4-5.95,0-10.46,1.16-13.14,3.47s-4.3,5.39-4.3,13.29v56c0,3.85-1.23,4.82-5.75,4.82H194.16c-4.51,0-5.74-1-5.74-4.82V45.24c0-3.28,1.43-4.43,4.92-4.43h6.41a8.16,8.16,0,0,1,8.16,8.09h0c5.75-5.59,13.75-9.82,27.91-9.82,14.57,0,24.62,3.66,31.19,12.9,4.52,6.55,5.55,16,5.55,25.8Z"/><path class="a" d="M379.39,101.08c0,13.87-2.67,21.18-9.24,26.77-6.77,5.58-17.85,9.05-33.86,9.05-15.8,0-25.24-2.7-31.8-8.09-8.42-6.93-12.12-18.68-12.12-36.59V84.33c0-17.72,3.7-27.92,11.7-35.43,7.19-6.74,17-9.82,31-9.82,7.8,0,14.78,1.92,19.5,4.81H355V15.82a11,11,0,0,1,11-11h7.63c4.52,0,5.75,1,5.75,4.82ZM355,74.7c0-7.7-1.65-11-4.1-13.09-2.88-2.51-7-4-13.75-4-7.19,0-11.7,2.12-14.78,5.59-4.31,4.81-5.13,11-5.13,21.76v6c0,12.32,1.23,18.29,4.92,22.52,3.08,3.47,7.19,5,14.16,5,8,0,11.91-1.35,14.78-4.23s3.9-7.71,3.9-14.25Z"/><path class="a" d="M588.23,101.08c0,13.87-2.67,21.18-9.24,26.77-6.77,5.58-17.85,9.05-33.86,9.05-15.8,0-25.24-2.7-31.81-8.09-8.41-6.93-12.11-18.68-12.11-36.59V84.33c0-17.72,3.7-27.92,11.7-35.43,7.18-6.74,17-9.82,31-9.82,7.8,0,14.78,1.92,19.5,4.81h.41V15.82a11,11,0,0,1,11-11h7.63c4.52,0,5.75,1,5.75,4.82ZM563.81,74.7c0-7.7-1.65-11-4.11-13.09-2.87-2.51-7-4-13.75-4-7.18,0-11.69,2.12-14.77,5.59-4.31,4.81-5.13,11-5.13,21.76v6c0,12.32,1.23,18.29,4.92,22.52,3.08,3.47,7.19,5,14.16,5,8,0,11.91-1.35,14.78-4.23s3.9-7.71,3.9-14.25Z"/><path class="b" d="M816.53,9.62c0-3.86,1.23-4.82,5.75-4.82h7.63a11,11,0,0,1,11,11V43.89h.41c4.72-2.89,11.7-4.81,19.5-4.81,14,0,23.81,3.08,31,9.82,8,7.51,11.7,17.71,11.7,35.43v7.89c0,17.91-3.7,29.66-12.11,36.59-6.57,5.39-16,8.09-31.81,8.09-16,0-27.09-3.47-33.86-9.05-6.57-5.59-9.24-12.9-9.24-26.77ZM841,99.93c0,6.54,1,11.36,3.9,14.25s6.77,4.23,14.78,4.23c7,0,11.08-1.54,14.16-5,3.69-4.23,4.92-10.2,4.92-22.52v-6c0-10.79-.82-17-5.13-21.76-3.08-3.47-7.59-5.59-14.77-5.59-6.78,0-10.88,1.54-13.75,4C842.6,63.72,841,67,841,74.7Z"/><path class="a" d="M480.88,92.65c0,4-1.23,5.59-5.54,5.59H424c.2,7.7,1.64,13.24,5.13,16.13,2.67,2.31,8.21,3.85,18.06,3.85a68.58,68.58,0,0,0,17.06-2.63,10.12,10.12,0,0,1,12.38,6.94l1.14,4c.82,2.89.2,4-3.7,5.39a91.29,91.29,0,0,1-29.75,5c-16.63,0-27.5-3.08-34.48-9.82-8-7.7-10.67-19.6-10.67-37.31v-5.2c0-30.24,10.67-45.49,42.27-45.49,13.95,0,22.37,3.08,28.94,8.66,6.77,5.78,10.46,13.33,10.46,31.82ZM429,61.22c-3.69,3.66-5.33,9.68-5.33,18.92h30.16c2.06,0,2.67-.77,2.67-2.7,0-8.47-1-13.33-3.9-16.41-2.46-2.5-5.74-3.66-11.9-3.66C435.33,57.37,431.63,58.53,429,61.22Z"/><path class="b" d="M1009.18,92.65c0,4-1.23,5.59-5.54,5.59h-51.3c.2,7.7,1.64,13.24,5.13,16.13,2.67,2.31,8.21,3.85,18.06,3.85a68.58,68.58,0,0,0,17.06-2.63,10.12,10.12,0,0,1,12.38,6.94l1.14,4c.82,2.89.2,4-3.7,5.39a91.29,91.29,0,0,1-29.75,5c-16.63,0-27.5-3.08-34.48-9.82-8-7.7-10.67-19.6-10.67-37.31v-5.2c0-30.24,10.67-45.49,42.27-45.49,14,0,22.37,3.08,28.94,8.66,6.77,5.78,10.46,13.33,10.46,31.82ZM957.26,61.22c-3.69,3.66-5.33,9.68-5.33,18.92H982.1c2,0,2.66-.77,2.66-2.7,0-8.47-1-13.33-3.9-16.41-2.46-2.5-5.74-3.66-11.9-3.66C963.63,57.37,959.93,58.53,957.26,61.22Z"/><path class="b" d="M765.31,130.35c0,3.85,1.23,4.82,5.75,4.82H784c4.51,0,5.74-1,5.74-4.82V44.83C789.73,41,788.5,40,784,40h-3.84a14.83,14.83,0,0,0-14.84,14.84Z"/><path class="b" d="M745.53,8.48A2.7,2.7,0,0,0,743,4.8h-13.6a14.8,14.8,0,0,0-13.82,9.49l-9,23.33a215,215,0,0,0,30.56-7.42Z"/><path class="b" d="M688.37,85.42a75.94,75.94,0,0,0-5.69,24.38,1.49,1.49,0,0,1-2.88.45L648,27.3l.05.07-5-13.08A14.8,14.8,0,0,0,629.22,4.8h-13.6a2.7,2.7,0,0,0-2.52,3.68l47.35,123.65a4.69,4.69,0,0,0,4,3v.06h29.36v0a4.71,4.71,0,0,0,4.18-3l28.26-73.62C704,67.07,693.42,77.25,688.37,85.42Z"/><path class="b" d="M708.11,56.65a178.09,178.09,0,0,1,20.47-4.13l6.24-16.21A134.16,134.16,0,0,0,708.11,56.65Z"/><path class="c" d="M726.39,58.47l2.19-5.95h0l-2.31,6Z"/><path class="b" d="M688.37,85.42c5-8.17,15.67-18.35,37.9-26.91l2.31-6a178.09,178.09,0,0,0-20.47,4.13A89.66,89.66,0,0,0,688.37,85.42Z"/><path class="d" d="M688.37,85.42c5-8.17,15.67-18.35,37.9-26.91l2.31-6a178.09,178.09,0,0,0-20.47,4.13A89.66,89.66,0,0,0,688.37,85.42Z"/><path class="a" d="M760.34,22a1.1,1.1,0,0,0-.62.06c-9.54,3.91-14.44,5.6-22.55,8.15a215,215,0,0,1-30.56,7.42c-44,7-57.63-9.1-58.53-10.25L648,27.3l31.77,83a1.49,1.49,0,0,0,2.88-.45,75.94,75.94,0,0,1,5.69-24.38,89.66,89.66,0,0,1,19.74-28.77,134.16,134.16,0,0,1,26.71-20.34c14.66-8.64,23.36-11.43,25.62-12.16a1.12,1.12,0,0,0,.57-.44l0-.05a1.09,1.09,0,0,0-.7-1.67Z"/><path class="a" d="M784.74,27.65a.75.75,0,0,0,1,.69l1.46-.6a1.86,1.86,0,0,0,1-.94l6-14.13a2.23,2.23,0,0,1,1-1.09L803,7.31a2,2,0,0,0,.89-.78l.58-1a1.2,1.2,0,0,0,.07-1.18,1.19,1.19,0,0,0-.89-.78l-1.12-.3a2,2,0,0,0-1.18.09l-8.52,2.53a2.25,2.25,0,0,1-1.47-.07L777.13.11a1.83,1.83,0,0,0-1.39.06l-1.46.61A.76.76,0,0,0,774.05,2l8,7.81a.75.75,0,0,1-.21,1.21L773,15.18a1.64,1.64,0,0,1-1.09.11l-4-1a.88.88,0,0,0-.63.08h0a.75.75,0,0,0-.27,1.19l2.72,3a.73.73,0,0,1,.19.46l.23,4.06a.76.76,0,0,0,1,.65h0a.83.83,0,0,0,.49-.4l2.13-3.54a1.67,1.67,0,0,1,.85-.7l9.14-3.33a.75.75,0,0,1,1,.7Z"/></svg>